<?xml version="1.0" standalone="no"?>
<!DOCTYPE svg PUBLIC "-//W3C//DTD SVG 20010904//EN"
 "http://www.w3.org/TR/2001/REC-SVG-20010904/DTD/svg10.dtd">
<svg version="1.0" xmlns="http://www.w3.org/2000/svg"
 width="964.000000pt" height="964.000000pt" viewBox="0 0 964.000000 964.000000"
 preserveAspectRatio="xMidYMid meet">
<metadata>
Created by potrace 1.11, written by Peter Selinger 2001-2013
</metadata>
<g transform="translate(0.000000,964.000000) scale(0.100000,-0.100000)"
fill="#000000" stroke="none">
<path d="M2430 9340 l0 -300 -300 0 -300 0 0 -900 0 -900 -600 0 -600 0 0
-300 0 -300 -300 0 -300 0 0 -900 0 -900 300 0 300 0 0 -300 0 -300 600 0 600
0 0 -600 0 -600 300 0 300 0 0 -600 0 -600 -300 0 -300 0 0 -300 0 -300 -300
0 -300 0 0 -300 0 -300 300 0 300 0 0 -300 0 -300 3000 0 3000 0 0 300 0 300
300 0 300 0 0 300 0 300 300 0 300 0 0 300 0 300 300 0 300 0 0 600 0 600
-300 0 -300 0 0 300 0 300 300 0 300 0 0 600 0 600 -600 0 -600 0 0 900 0 900
-300 0 -300 0 0 900 0 900 -600 0 -600 0 0 300 0 300 -300 0 -300 0 0 300 0
300 -900 0 -900 0 0 -300 0 -300 -300 0 -300 0 0 300 0 300 -600 0 -600 0 0
-300z m1200 -900 l0 -600 300 0 300 0 0 600 0 600 900 0 900 0 0 -1500 0
-1500 300 0 300 0 0 -900 0 -900 300 0 300 0 0 -300 0 -300 300 0 300 0 0
-600 0 -600 -600 0 -600 0 0 -300 0 -300 600 0 600 0 0 -300 0 -300 -300 0
-300 0 0 -300 0 -300 -900 0 -900 0 0 600 0 600 -300 0 -300 0 0 -600 0 -600
-300 0 -300 0 0 300 0 300 -300 0 -300 0 0 300 0 300 -300 0 -300 0 0 300 0
300 600 0 600 0 0 300 0 300 -900 0 -900 0 0 300 0 300 600 0 600 0 0 300 0
300 600 0 600 0 0 600 0 600 -300 0 -300 0 0 -300 0 -300 -300 0 -300 0 0 300
0 300 -600 0 -600 0 0 -300 0 -300 -900 0 -900 0 0 900 0 900 600 0 600 0 0
300 0 300 300 0 300 0 0 900 0 900 600 0 600 0 0 -600z m5400 -6000 l0 -600
-300 0 -300 0 0 600 0 600 300 0 300 0 0 -600z m-6000 -1500 l0 -300 -600 0
-600 0 0 300 0 300 600 0 600 0 0 -300z"/>
<path d="M4830 7540 l0 -300 -300 0 -300 0 0 -600 0 -600 600 0 600 0 0 900 0
900 -300 0 -300 0 0 -300z"/>
<path d="M1230 5740 l0 -300 300 0 300 0 0 300 0 300 -300 0 -300 0 0 -300z"/>
<path d="M4830 3940 l0 -300 -300 0 -300 0 0 -300 0 -300 300 0 300 0 0 300 0
300 300 0 300 0 0 300 0 300 -300 0 -300 0 0 -300z"/>
<path d="M6030 2740 l0 -300 300 0 300 0 0 300 0 300 -300 0 -300 0 0 -300z"/>
</g>
</svg>
